<?xml version="1.0" encoding="UTF-8" standalone="no"?>
<svg width="39cm" height="11cm" viewBox="16 16 39 11"><rect style="fill: #ffffff" x="20.1818" y="20.5901" width="6.65" height="6.6"/><rect style="fill: none; stroke-width: 0.05; stroke-dasharray: 1; stroke: #000000" x="20.1818" y="20.5901" width="6.65" height="6.6"/><text style="fill: #000000; text-align: center; font-size: 1" x="23.5068" y="24.2401"></text><path style="fill: #ffffff" d="M 23.9818 22.1401 C 24.9818,22.1401 24.1818,26.6401 22.2818,25.9401 C 20.3818,25.2401 23.9318,25.3401 23.3318,24.1901 C 22.7318,23.0401 22.9818,22.1401 23.9818,22.1401z"/><path style="fill: none; stroke-width: 0.1; stroke: #000000" d="M 23.9818 22.1401 C 24.9818,22.1401 24.1818,26.6401 22.2818,25.9401 C 20.3818,25.2401 23.9318,25.3401 23.3318,24.1901 C 22.7318,23.0401 22.9818,22.1401 23.9818,22.1401"/><rect style="fill: #ffffff" x="32.1818" y="20.6251" width="6.65" height="6.6"/><rect style="fill: none; stroke-width: 0.05; stroke-dasharray: 1; stroke: #000000" x="32.1818" y="20.6251" width="6.65" height="6.6"/><text style="fill: #000000; text-align: center; font-size: 1" x="35.5068" y="24.2751"></text><path style="fill: #ffffff" d="M 35.9818 22.1751 C 36.9818,22.1751 36.1818,26.6751 34.2818,25.9751 C 32.3818,25.2751 35.0318,25.4901 35.3318,24.2251 C 35.6318,22.9601 34.9818,22.1751 35.9818,22.1751z"/><path style="fill: none; stroke-width: 0.1; stroke: #000000" d="M 35.9818 22.1751 C 36.9818,22.1751 36.1818,26.6751 34.2818,25.9751 C 32.3818,25.2751 35.0318,25.4901 35.3318,24.2251 C 35.6318,22.9601 34.9818,22.1751 35.9818,22.1751"/><rect style="fill: #ffffff" x="43.3818" y="20.5751" width="6.65" height="6.6"/><rect style="fill: none; stroke-width: 0.05; stroke-dasharray: 1; stroke: #000000" x="43.3818" y="20.5751" width="6.65" height="6.6"/><text style="fill: #000000; text-align: center; font-size: 1" x="46.7068" y="24.2251"></text><path style="fill: #ffffff" d="M 47.5818 23.0401 C 48.5818,23.0401 47.3818,26.6251 45.4818,25.9251 C 43.5818,25.2251 47.1318,25.3251 46.5318,24.1751 C 45.9318,23.0251 46.5818,23.0401 47.5818,23.0401z"/><path style="fill: none; stroke-width: 0.1; stroke: #000000" d="M 47.5818 23.0401 C 48.5818,23.0401 47.3818,26.6251 45.4818,25.9251 C 43.5818,25.2251 47.1318,25.3251 46.5318,24.1751 C 45.9318,23.0251 46.5818,23.0401 47.5818,23.0401"/><line style="fill: none; stroke-width: 0.15; stroke-dasharray: 0.6; stroke: #000000" x1="27.9818" y1="24.0901" x2="30.4818" y2="24.0901"/><polyline style="fill: #000000" points="30.4818,24.4901 31.2818,24.0901 30.4818,23.6901 "/><line style="fill: none; stroke-width: 0.15; stroke-dasharray: 0.6; stroke: #000000" x1="39.4318" y1="24.0751" x2="41.9318" y2="24.0751"/><polyline style="fill: #000000" points="41.9318,24.4751 42.7318,24.0751 41.9318,23.6751 "/><path style="fill: none; stroke-width: 0.1; stroke: #000000" d="M 50.0318,23.8751 A 4.01195,4.01195 0 1 1 47.2318,16.5901"/><path style="fill: none; stroke-width: 0.1; stroke: #000000" d="M 19.5162 23.4463 C 19.5818,23.4901 12.7818,17.5401 21.2818,16.5901"/><polyline style="fill: #000000" points="19.2943,23.7792 20.1818,23.8901 19.738,23.1135 "/><line style="fill: none; stroke-width: 0.1; stroke: #000000" x1="21.2318" y1="16.5901" x2="47.2818" y2="16.5401"/><text style="fill: #000000; text-align: left; font-size: 1" x="51.1818" y="24.3901">Image I(x,t)</text><path style="fill: none; stroke-width: 0.08; stroke-dasharray: 1; stroke: #000000" d="M 23.9818 22.1401 C 27.5818,20.5401 31.7687,20.9775 35.1859,21.8975"/><polyline style="fill: #000000" points="35.1339,22.0906 35.6687,22.0275 35.2379,21.7044 "/><path style="fill: none; stroke-width: 0.08; stroke-dasharray: 1; stroke: #000000" d="M 23.7465 22.1033 C 26.9187,19.1775 45.4318,19.2401 47.3356,22.6049"/><polyline style="fill: #000000" points="47.1615,22.7034 47.5818,23.0401 47.5097,22.5064 "/><text style="fill: #000000; text-align: left; font-size: 1" x="31.2818" y="19.2901">M  (x , t)</text><text style="fill: #000000; text-align: left; font-size: 1" x="32.0318" y="19.6901">I</text></svg>
