<?xml version="1.0" encoding="UTF-8" standalone="no"?>
<svg width="43cm" height="25cm" viewBox="4 0 43 25"><rect style="fill: #ffffff" x="8" y="5" width="6.65" height="6.6"/><rect style="fill: none; stroke-width: 0.05; stroke-dasharray: 1; stroke: #000000" x="8" y="5" width="6.65" height="6.6"/><text style="fill: #000000; text-align: center; font-size: 1" x="11.325" y="8.65"></text><path style="fill: #ffffff" d="M 11.8 6.55 C 12.8,6.55 12,11.05 10.1,10.35 C 8.2,9.65 11.75,9.75 11.15,8.6 C 10.55,7.45 10.8,6.55 11.8,6.55z"/><path style="fill: none; stroke-width: 0.1; stroke: #000000" d="M 11.8 6.55 C 12.8,6.55 12,11.05 10.1,10.35 C 8.2,9.65 11.75,9.75 11.15,8.6 C 10.55,7.45 10.8,6.55 11.8,6.55"/><rect style="fill: #ffffff" x="31.25" y="15.235" width="6.65" height="6.6"/><rect style="fill: none; stroke-width: 0.05; stroke-dasharray: 1; stroke: #000000" x="31.25" y="15.235" width="6.65" height="6.6"/><text style="fill: #000000; text-align: center; font-size: 1" x="34.575" y="18.885"></text><path style="fill: #ffffff" d="M 35.05 16.785 C 36.05,16.785 35.25,21.285 33.35,20.585 C 31.45,19.885 35,19.985 34.4,18.835 C 33.8,17.685 34.05,16.785 35.05,16.785z"/><path style="fill: none; stroke-width: 0.1; stroke: #000000" d="M 35.05 16.785 C 36.05,16.785 35.25,21.285 33.35,20.585 C 31.45,19.885 35,19.985 34.4,18.835 C 33.8,17.685 34.05,16.785 35.05,16.785"/><rect style="fill: #ffffff" x="20" y="5.035" width="6.65" height="6.6"/><rect style="fill: none; stroke-width: 0.05; stroke-dasharray: 1; stroke: #000000" x="20" y="5.035" width="6.65" height="6.6"/><text style="fill: #000000; text-align: center; font-size: 1" x="23.325" y="8.685"></text><path style="fill: #ffffff" d="M 23.8 6.585 C 24.8,6.585 24,11.085 22.1,10.385 C 20.2,9.685 22.85,9.9 23.15,8.635 C 23.45,7.37 22.8,6.585 23.8,6.585z"/><path style="fill: none; stroke-width: 0.1; stroke: #000000" d="M 23.8 6.585 C 24.8,6.585 24,11.085 22.1,10.385 C 20.2,9.685 22.85,9.9 23.15,8.635 C 23.45,7.37 22.8,6.585 23.8,6.585"/><rect style="fill: #ffffff" x="31.2" y="4.985" width="6.65" height="6.6"/><rect style="fill: none; stroke-width: 0.05; stroke-dasharray: 1; stroke: #000000" x="31.2" y="4.985" width="6.65" height="6.6"/><text style="fill: #000000; text-align: center; font-size: 1" x="34.525" y="8.635"></text><path style="fill: #ffffff" d="M 35.4 7.45 C 36.4,7.45 35.2,11.035 33.3,10.335 C 31.4,9.635 34.95,9.735 34.35,8.585 C 33.75,7.435 34.4,7.45 35.4,7.45z"/><path style="fill: none; stroke-width: 0.1; stroke: #000000" d="M 35.4 7.45 C 36.4,7.45 35.2,11.035 33.3,10.335 C 31.4,9.635 34.95,9.735 34.35,8.585 C 33.75,7.435 34.4,7.45 35.4,7.45"/><rect style="fill: #ffffff" x="7.9" y="15.25" width="6.65" height="6.6"/><rect style="fill: none; stroke-width: 0.05; stroke-dasharray: 1; stroke: #000000" x="7.9" y="15.25" width="6.65" height="6.6"/><text style="fill: #000000; text-align: center; font-size: 1" x="11.225" y="18.9"></text><path style="fill: #ffffff" d="M 11.7 16.8 C 12.7,16.8 11.9,21.3 10,20.6 C 8.1,19.9 10.85,19.95 10.25,18.8 C 9.65,17.65 10.7,16.8 11.7,16.8z"/><path style="fill: none; stroke-width: 0.1; stroke: #000000" d="M 11.7 16.8 C 12.7,16.8 11.9,21.3 10,20.6 C 8.1,19.9 10.85,19.95 10.25,18.8 C 9.65,17.65 10.7,16.8 11.7,16.8"/><rect style="fill: #ffffff" x="19.9" y="15.285" width="6.65" height="6.6"/><rect style="fill: none; stroke-width: 0.05; stroke-dasharray: 1; stroke: #000000" x="19.9" y="15.285" width="6.65" height="6.6"/><text style="fill: #000000; text-align: center; font-size: 1" x="23.225" y="18.935"></text><path style="fill: #ffffff" d="M 24.15 17.8 C 25.15,17.8 23.9,21.335 22,20.635 C 20.1,19.935 23.15,20.5 22.55,19.35 C 21.95,18.2 23.15,17.8 24.15,17.8z"/><path style="fill: none; stroke-width: 0.1; stroke: #000000" d="M 24.15 17.8 C 25.15,17.8 23.9,21.335 22,20.635 C 20.1,19.935 23.15,20.5 22.55,19.35 C 21.95,18.2 23.15,17.8 24.15,17.8"/><line style="fill: none; stroke-width: 0.15; stroke-dasharray: 0.6; stroke: #000000" x1="15.8" y1="8.5" x2="18.3" y2="8.5"/><polyline style="fill: #000000" points="18.3,8.9 19.1,8.5 18.3,8.1 "/><line style="fill: none; stroke-width: 0.15; stroke-dasharray: 0.6; stroke: #000000" x1="27.25" y1="8.485" x2="29.75" y2="8.485"/><polyline style="fill: #000000" points="29.75,8.885 30.55,8.485 29.75,8.085 "/><line style="fill: none; stroke-width: 0.15; stroke-dasharray: 0.6; stroke: #000000" x1="15.7" y1="18.635" x2="18.2" y2="18.635"/><polyline style="fill: #000000" points="18.2,19.035 19,18.635 18.2,18.235 "/><line style="fill: none; stroke-width: 0.15; stroke-dasharray: 0.6; stroke: #000000" x1="27.1" y1="18.535" x2="29.6" y2="18.535"/><polyline style="fill: #000000" points="29.6,18.935 30.4,18.535 29.6,18.135 "/><path style="fill: none; stroke-width: 0.1; stroke: #000000" d="M 37.85,8.285 A 4.01195,4.01195 0 1 1 35.05,1"/><path style="fill: none; stroke-width: 0.1; stroke: #000000" d="M 7.33436 7.85624 C 7.4,7.9 0.6,1.95 9.1,1"/><polyline style="fill: #000000" points="7.11248,8.18906 8,8.3 7.55624,7.52342 "/><line style="fill: none; stroke-width: 0.1; stroke: #000000" x1="9.05" y1="1" x2="35.1" y2="0.95"/><path style="fill: none; stroke-width: 0.1; stroke: #000000" d="M 37.9 18.535 C 40.6,18.45 41.1,25.15 34.05,25.1"/><path style="fill: none; stroke-width: 0.1; stroke: #000000" d="M 7.11713,18.7147 A 3.40395,3.40395 0 0 0 8.4,25.15"/><polyline style="fill: #000000" points="7.19946,19.1061 7.9,18.55 7.0348,18.3232 "/><line style="fill: none; stroke-width: 0.1; stroke: #000000" x1="8.3" y1="25.05" x2="34.1" y2="25.1"/><text style="fill: #000000; text-align: left; font-size: 1" x="39" y="8.8">Template T(x,t)</text><text style="fill: #000000; text-align: left; font-size: 1" x="40.3" y="19.95">Subject S(x,t)</text><polyline style="fill: #ffffff" points="9.17152,12.3259 9.17152,13.4153 8.62682,13.4153 9.71622,14.5047 10.8056,13.4153 10.2609,13.4153 10.2609,12.3259 "/><polyline style="fill: none; stroke-width: 0.1; stroke: #000000" points="9.17152,12.3259 9.17152,13.4153 8.62682,13.4153 9.71622,14.5047 10.8056,13.4153 10.2609,13.4153 10.2609,12.3259 "/><polyline style="fill: none; stroke-width: 0.01; stroke: #000000" points="9.17152,12.3259 9.17152,13.4153 8.62682,13.4153 9.71622,14.5047 10.8056,13.4153 10.2609,13.4153 10.2609,12.3259 "/><polyline style="fill: #ffffff" points="32.1904,12.46 32.1904,13.5494 31.6457,13.5494 32.7351,14.6388 33.8245,13.5494 33.2798,13.5494 33.2798,12.46 "/><polyline style="fill: none; stroke-width: 0.1; stroke: #000000" points="32.1904,12.46 32.1904,13.5494 31.6457,13.5494 32.7351,14.6388 33.8245,13.5494 33.2798,13.5494 33.2798,12.46 "/><polyline style="fill: none; stroke-width: 0.01; stroke: #000000" points="32.1904,12.46 32.1904,13.5494 31.6457,13.5494 32.7351,14.6388 33.8245,13.5494 33.2798,13.5494 33.2798,12.46 "/><polyline style="fill: #ffffff" points="21.1904,12.41 21.1904,13.4994 20.6457,13.4994 21.7351,14.5888 22.8245,13.4994 22.2798,13.4994 22.2798,12.41 "/><polyline style="fill: none; stroke-width: 0.1; stroke: #000000" points="21.1904,12.41 21.1904,13.4994 20.6457,13.4994 21.7351,14.5888 22.8245,13.4994 22.2798,13.4994 22.2798,12.41 "/><polyline style="fill: none; stroke-width: 0.01; stroke: #000000" points="21.1904,12.41 21.1904,13.4994 20.6457,13.4994 21.7351,14.5888 22.8245,13.4994 22.2798,13.4994 22.2798,12.41 "/><polyline style="fill: #6083d3" points="12.3,14.35 12.3,13.35 11.8,13.35 12.8,12.35 13.8,13.35 13.3,13.35 13.3,14.35 "/><polyline style="fill: none; stroke-width: 0.1; stroke: #000000" points="12.3,14.35 12.3,13.35 11.8,13.35 12.8,12.35 13.8,13.35 13.3,13.35 13.3,14.35 "/><polyline style="fill: none; stroke-width: 0.01; stroke: #000000" points="12.3,14.35 12.3,13.35 11.8,13.35 12.8,12.35 13.8,13.35 13.3,13.35 13.3,14.35 "/><polyline style="fill: #6083d3" points="23.9457,14.3307 23.9457,13.3307 23.4457,13.3307 24.4457,12.3307 25.4457,13.3307 24.9457,13.3307 24.9457,14.3307 "/><polyline style="fill: none; stroke-width: 0.1; stroke: #000000" points="23.9457,14.3307 23.9457,13.3307 23.4457,13.3307 24.4457,12.3307 25.4457,13.3307 24.9457,13.3307 24.9457,14.3307 "/><polyline style="fill: none; stroke-width: 0.01; stroke: #000000" points="23.9457,14.3307 23.9457,13.3307 23.4457,13.3307 24.4457,12.3307 25.4457,13.3307 24.9457,13.3307 24.9457,14.3307 "/><polyline style="fill: #6083d3" points="35.3957,14.3807 35.3957,13.3807 34.8957,13.3807 35.8957,12.3807 36.8957,13.3807 36.3957,13.3807 36.3957,14.3807 "/><polyline style="fill: none; stroke-width: 0.1; stroke: #000000" points="35.3957,14.3807 35.3957,13.3807 34.8957,13.3807 35.8957,12.3807 36.8957,13.3807 36.3957,13.3807 36.3957,14.3807 "/><polyline style="fill: none; stroke-width: 0.01; stroke: #000000" points="35.3957,14.3807 35.3957,13.3807 34.8957,13.3807 35.8957,12.3807 36.8957,13.3807 36.3957,13.3807 36.3957,14.3807 "/><text style="fill: #000000; text-align: left; font-size: 1" x="37.65" y="13.8">H (x,t)</text><text style="fill: #000000; text-align: left; font-size: 1" x="4.275" y="13.51">H (x,t)</text><text style="fill: #000000; text-align: left; font-size: 1" x="4.85" y="12.75">-1</text><path style="fill: none; stroke-width: 0.08; stroke-dasharray: 1; stroke: #000000" d="M 11.4 6.5 C 15,4.9 19.3,5.4 22.7172,6.32001"/><polyline style="fill: #000000" points="22.6652,6.51314 23.2,6.45 22.7692,6.12689 "/><path style="fill: none; stroke-width: 0.08; stroke-dasharray: 1; stroke: #000000" d="M 11.2778 6.5258 C 14.45,3.6 32.9,3.65 34.8038,7.01483"/><polyline style="fill: #000000" points="34.6297,7.11331 35.05,7.45 34.9779,6.91634 "/><text style="fill: #000000; text-align: left; font-size: 1" x="19.95" y="3.95"></text><text style="fill: #000000; text-align: left; font-size: 1" x="27.6" y="4.2">M  (x , t)</text><text style="fill: #000000; text-align: left; font-size: 1" x="28.35" y="4.6">T</text><text style="fill: #000000; text-align: left; font-size: 1" x="18.3487" y="23.6338">M  (x , t)</text><text style="fill: #000000; text-align: left; font-size: 1" x="19.0987" y="24.0338">S</text><path style="fill: none; stroke-width: 0.08; stroke-dasharray: 1; stroke: #000000" d="M 33.037 20.9749 C 30.85,23.7 13.1,22.9 10.25,20.85"/><polyline style="fill: #000000" points="33.193,21.1001 33.35,20.585 32.8811,20.8498 "/><path style="fill: none; stroke-width: 0.08; stroke-dasharray: 0.4; stroke: #000000" d="M 21.409 21.0857 C 18.95,22.4 12.941,22.8581 10.091,20.8081"/><polyline style="fill: #000000" points="21.5033,21.2621 21.85,20.85 21.3148,20.9093 "/><line style="fill: none; stroke-width: 0.1; stroke: #000000" x1="12.025" y1="2.1999" x2="15.775" y2="2.1499"/><line style="fill: none; stroke-width: 0.1; stroke: #000000" x1="27.725" y1="2.1499" x2="29.7751" y2="2.18587"/><polyline style="fill: #000000" points="29.7681,2.58581 30.575,2.1999 29.7821,1.78593 "/><rect style="fill: #ffffff" x="15.725" y="1.2499" width="12.25" height="1.9"/><rect style="fill: none; stroke-width: 0.1; stroke: #000000" x="15.725" y="1.2499" width="12.25" height="1.9"/><text style="fill: #000000; text-align: center; font-size: 1" x="21.85" y="2.5499">wavelet attributes</text><line style="fill: none; stroke-width: 0.1; stroke: #000000" x1="44.575" y1="10.1499" x2="44.6125" y2="11.7499"/><line style="fill: none; stroke-width: 0.1; stroke: #000000" x1="44.6125" y1="14.8499" x2="44.655" y2="16.5501"/><polyline style="fill: #000000" points="44.2551,16.5601 44.675,17.3499 45.0549,16.5402 "/><rect style="fill: #ffffff" x="42" y="11.7499" width="5.225" height="3.1"/><rect style="fill: none; stroke-width: 0.1; stroke: #000000" x="42" y="11.7499" width="5.225" height="3.1"/><text style="fill: #000000; text-align: center; font-size: 1" x="44.6125" y="13.2499">geometric</text><text style="fill: #000000; text-align: center; font-size: 1" x="44.6125" y="14.0499">attributes</text></svg>
